{"title":".45 2006.DVDRip.H.263.DivX . NVEE","uid":8696688,"size":1157786529,"categoryP":"video","categoryS":"movies","magnet":"?xt=urn:btih:70b26da95078df14f869f14e618f516387b48700&amp;dn=.45+2006.DVDRip.H.263.DivX+.+NVEE&amp;tr=udp%3A%2F%2Ftracker.openbittorrent.com%3A80&amp;tr=udp%3A%2F%2Fopen.demonii.com%3A1337&amp;tr=udp%3A%2F%2Ftracker.coppersurfer.tk%3A6969&amp;tr=udp%3A%2F%2Fexodus.desync.com%3A6969","seeders":2,"leechers":0,"uploader":".NVEE","files":6,"time":1373984621,"description":"\nFULL_INFOs\n\n99.99% &gt;&gt;&gt; SYNCED GUARANTEED \n\nSource : DVD\n\nMy Media Player of Choice &quot;VLC Media Player&quot;\n\nSpoken Language : English Only\n\nAudio : 6 ~ Channels\n\n\n &lt;a href=&quot;\nhttp://www.imdb.com/title/tt0259822/&quot; rel=&quot;nofollow&quot; target=&quot;_NEW&quot;&gt;\nhttp://www.imdb.com/title/tt0259822/&lt;/a&gt;\n\n\n\n\nSubs Info : MULTI_SUBS\n\n &lt;a href=&quot;\nhttp://www.subtitleseeker.com/0259822/.45/Subtitles/&quot; rel=&quot;nofollow&quot; target=&quot;_NEW&quot;&gt;\nhttp://www.subtitleseeker.com/0259822/.45/Subtitles/&lt;/a&gt;\n\n104 Subtitles In 22 Languages Use Link Provided \n &lt;a href=&quot;\nhttp://www.subtitleseeker.com/0259822/.45/Subtitles/&quot; rel=&quot;nofollow&quot; target=&quot;_NEW&quot;&gt;\nhttp://www.subtitleseeker.com/0259822/.45/Subtitles/&lt;/a&gt;\n\n104 Subtitles In 22 Languages Only @ SubtitleSeeker\n &lt;a href=&quot;\nhttp://www.subtitleseeker.com/0259822/.45/Subtitles/&quot; rel=&quot;nofollow&quot; target=&quot;_NEW&quot;&gt;\nhttp://www.subtitleseeker.com/0259822/.45/Subtitles/&lt;/a&gt;\n\nAll .srt subs can be turned On/Off\n\n\n &lt;a href=&quot;\nhttp://www.imdb.com/title/tt0259822/&quot; rel=&quot;nofollow&quot; target=&quot;_NEW&quot;&gt;\nhttp://www.imdb.com/title/tt0259822/&lt;/a&gt;\n\n\nGeneral\n\nComplete name : .45 2006.DVDRip.H.263.DivX . NVEE.divx\nFormat : AVI\nFormat/Info : Audio Video Interleave\nFile size : 1.08 GiB\nDuration : 1h 27mn\nOverall bit rate : 1 758 Kbps\n\nVideo\n\nID : 0\nFormat : MPEG-4 Visual\nFormat settings, BVOP : 1\nFormat settings, QPel : No\nFormat settings, GMC : No warppoints\nFormat settings, Matrix : Default (H.263)\nMuxing mode : Packed bitstream\nCodec ID : DX50\nCodec ID/Hint : DivX 5\nDuration : 1h 27mn\nBit rate : 1 301 Kbps\nWidth : 720 pixels\nHeight : 378 pixels\nDisplay aspect ratio : 1.905\nFrame rate : 25.000 fps\nColor space : YUV\nChroma subsampling : 4:2:0\nBit depth : 8 bits\nScan type : Progressive\nCompression mode : Lossy\nBits/(Pixel*Frame) : 0.191\nStream size : 817 MiB (74%)\nTitle : Video\nWriting library : DivX 6.8.0 Converter 6.6\n\nAudio\n\nID : 1\nFormat : AC-3\nFormat/Info : Audio Coding 3\nMode extension : CM (complete main)\nFormat settings, Endianness : Big\nCodec ID : 2000\nDuration : 1h 27mn\nBit rate mode : Constant\nBit rate : 448 Kbps\nChannel(s) : 6 channels\nChannel positions : Front: L C R, Side: L R, LFE\nSampling rate : 48.0 KHz\nBit depth : 16 bits\nCompression mode : Lossy\nStream size : 281 MiB (25%)\nAlignment : Split accross interleaves\nInterleave, duration : 40 ms (1.00 video frame)\nInterleave, preload duration : 500 ms\nTitle : Audio\n\n\n &lt;a href=&quot;\nhttp://www.imdb.com/title/tt0259822/&quot; rel=&quot;nofollow&quot; target=&quot;_NEW&quot;&gt;\nhttp://www.imdb.com/title/tt0259822/&lt;/a&gt;\n\n\nPlot\n\nBig Al (Angus Macfadyen), and his girlfriend Kat (Milla Jovovich), are small-time gun dealers in Queens, New York City. They love each other and place themselves more important than their business. One night, Big Al, realizing that he would earn much more alone, beats up Kat and leaves her with another girl. Kat, recovering from the wounds, sets to wreak revenge on him for leaving her, with the help of Reilly (Stephen Dorff), an old friend.\n\nSEE ME TORRENTS&quot;N SEED ME TORRENTS","torrent":{"xt":"urn:btih:70b26da95078df14f869f14e618f516387b48700","amp;dn":".45+2006.DVDRip.H.263.DivX+.+NVEE","amp;tr":["udp%3A%2F%2Ftracker.openbittorrent.com%3A80","udp%3A%2F%2Fopen.demonii.com%3A1337","udp%3A%2F%2Ftracker.coppersurfer.tk%3A6969","udp%3A%2F%2Fexodus.desync.com%3A6969"],"infoHash":"70b26da95078df14f869f14e618f516387b48700","infoHashBuffer":{"type":"Buffer","data":[112,178,109,169,80,120,223,20,248,105,241,78,97,143,81,99,135,180,135,0]},"announce":[],"urlList":[]}}